<svg id="Layer_2" data-name="Layer 2" xmlns="http://www.w3.org/2000/svg" viewBox="0 0 205 162"><defs><style>.cls-1{fill:none;stroke:#fff;stroke-miterlimit:10;stroke-width:10px;}</style></defs><rect class="cls-1" x="5" y="5" width="195" height="152"/><line class="cls-1" x1="102" y1="140" x2="102" y2="32"/><line class="cls-1" x1="88" y1="29" x2="116" y2="29"/><path class="cls-1" d="M147.5,62.06c0-6.57.58-12.21.39-18.77-.17-5.71-2.33-10.3-8.57-10.94-3.95-.41-6.81,2.25-8.32,5.65s-5,16,12,60a89.5,89.5,0,0,1,4.34,19.71c.7,7.22,1.37,22.38-8.85,23-6.24,0-7.85-5.51-8-10.76-.21-7.29.51-14.65.51-22" transform="translate(-4.5 -4.5)"/><path class="cls-1" d="M165.28,144.5V33.5c6.12,0,13.41-2,15.4,5.37,1.3,4.89.32,10,.32,15V65.62c0,4.84.51,8.21-2.35,12.31C176.18,81.45,172.46,84,168,83a24.82,24.82,0,0,1,7.78,3.36c6.05,3.91,5.28,9.71,5.37,15.91.08,5.6.26,11.21.39,16.81l.59,25.42" transform="translate(-4.5 -4.5)"/><path class="cls-1" d="M64.38,62c0-6.57-.58-12.21-.39-18.77.17-5.72,2.33-10.31,8.56-10.94,4-.41,6.82,2.25,8.33,5.65s5,16-12,60a89.5,89.5,0,0,0-4.34,19.71c-.7,7.22-1.37,22.38,8.85,23,6.24,0,7.85-5.51,8-10.76.21-7.29-.51-14.66-.51-22" transform="translate(-4.5 -4.5)"/><path class="cls-1" d="M46.6,144.39v-111c-6.12,0-13.41-2-15.4,5.37-1.31,4.89-.32,10-.32,15V65.51c0,4.84-.51,8.21,2.35,12.31,2.47,3.52,6.19,6.06,10.65,5.07a24.82,24.82,0,0,0-7.78,3.36c-6.05,3.91-5.28,9.71-5.37,15.91-.08,5.6-.26,11.21-.39,16.81l-.59,25.42" transform="translate(-4.5 -4.5)"/></svg>