<svg id="Layer_3" data-name="Layer 3" xmlns="http://www.w3.org/2000/svg" viewBox="0 0 205 162"><defs><style>.cls-1{fill:none;stroke:#323031;stroke-miterlimit:10;stroke-width:10px;}</style></defs><rect class="cls-1" x="5" y="5" width="195" height="152"/><line class="cls-1" x1="102" y1="140" x2="102" y2="32"/><line class="cls-1" x1="88" y1="29" x2="116" y2="29"/><path class="cls-1" d="M365.29,62.37c0-6.57.58-12.21.39-18.77-.17-5.72-2.33-10.31-8.57-10.94-4-.41-6.81,2.25-8.32,5.65s-5,16,12,60A90.08,90.08,0,0,1,365.13,118c.69,7.22,1.37,22.38-8.86,23-6.23,0-7.85-5.51-8-10.77-.21-7.28.51-14.65.51-21.95" transform="translate(-222.29 -4.81)"/><path class="cls-1" d="M383.06,144.81v-111c6.13,0,13.42-2,15.4,5.37,1.31,4.89.33,10,.33,15V65.93c0,4.84.51,8.21-2.36,12.31-2.46,3.52-6.18,6.06-10.64,5.07a25,25,0,0,1,7.77,3.35c6.06,3.92,5.29,9.72,5.38,15.92.08,5.6.26,11.2.39,16.81l.58,25.42" transform="translate(-222.29 -4.81)"/><path class="cls-1" d="M282.17,62.26c0-6.57-.59-12.21-.39-18.77.17-5.72,2.32-10.31,8.56-10.94,4-.41,6.82,2.25,8.33,5.65s5,16-12,60a89,89,0,0,0-4.34,19.7c-.7,7.23-1.37,22.39,8.85,23,6.23,0,7.85-5.51,8-10.77.2-7.28-.51-14.65-.51-22" transform="translate(-222.29 -4.81)"/><path class="cls-1" d="M264.39,144.7V33.7c-6.12,0-13.41-2-15.4,5.37-1.31,4.89-.32,10-.32,15V65.82c0,4.84-.51,8.21,2.35,12.3,2.46,3.52,6.19,6.07,10.65,5.08a24.93,24.93,0,0,0-7.78,3.35c-6.06,3.92-5.28,9.72-5.37,15.92-.08,5.6-.26,11.2-.39,16.81l-.59,25.42" transform="translate(-222.29 -4.81)"/></svg>